<svg width="159" height="40" viewBox="0 0 159 40" fill="none" xmlns="http://www.w3.org/2000/svg">
<path d="M34.9144 9.64311C32.6979 7.81994 29.6958 7.34668 26.5692 7.34668C23.4426 7.34668 20.4405 7.82312 18.224 9.64311C15.4551 11.9205 14.0051 15.6875 14.002 19.499C14.0051 23.3074 15.4551 27.0776 18.224 29.3549C20.4405 31.1781 23.4426 31.6514 26.5692 31.6514C29.6958 31.6514 32.6979 31.1749 34.9144 29.3549C37.6833 27.0776 39.1332 23.3105 39.1364 19.499C39.1364 15.6875 37.6833 11.9205 34.9144 9.64311ZM29.3254 24.8732C28.6036 25.5276 27.5177 25.6832 26.5788 25.6832C26.5756 25.6832 26.5692 25.6832 26.566 25.6832C25.6239 25.6832 24.5412 25.5307 23.8194 24.8732C22.6282 23.7901 21.801 21.6748 21.801 19.48C21.801 17.2852 22.6282 15.2016 23.8194 14.1185C24.5412 13.4641 25.6271 13.3085 26.566 13.3085C26.5692 13.3085 26.5756 13.3085 26.5788 13.3085C27.5209 13.3085 28.6036 13.461 29.3254 14.1185C30.5166 15.2016 31.3278 17.3011 31.3278 19.48C31.3278 21.6621 30.5198 23.7933 29.3254 24.8732Z" fill="#EE3B59"/>
<path d="M61.971 9.64311C59.7546 7.81994 56.7525 7.34668 53.6258 7.34668C50.4992 7.34668 47.4971 7.82312 45.2807 9.64311C42.5117 11.9205 41.0618 15.6875 41.0586 19.499C41.0618 23.3074 42.5117 27.0776 45.2807 29.3549C47.4971 31.1781 50.4992 31.6514 53.6258 31.6514C56.7525 31.6514 59.7546 31.1749 61.971 29.3549C64.7399 27.0776 66.1899 23.3105 66.1931 19.499C66.1899 15.6875 64.7399 11.9205 61.971 9.64311ZM56.382 24.8732C55.6602 25.5276 54.5744 25.6832 53.6354 25.6832C53.6322 25.6832 53.6258 25.6832 53.6226 25.6832C52.6805 25.6832 51.5978 25.5307 50.8761 24.8732C49.6848 23.7901 48.8576 21.6748 48.8576 19.48C48.8576 17.2852 49.6848 15.2016 50.8761 14.1185C51.5978 13.4641 52.6837 13.3085 53.6226 13.3085C53.6258 13.3085 53.6322 13.3085 53.6354 13.3085C54.5776 13.3085 55.6602 13.461 56.382 14.1185C57.5733 15.2016 58.3845 17.3011 58.3845 19.48C58.3845 21.6621 57.5764 23.7933 56.382 24.8732Z" fill="#EE3B59"/>
<path d="M123.454 22.0019C123.454 19.7341 123.454 7.34668 123.454 7.34668H116.453V22.7166C116.453 22.7166 116.456 22.7229 116.456 22.7261C116.456 22.7833 116.453 22.8309 116.453 22.8913C116.453 28.0717 120.675 32.2676 125.881 32.2676C128.573 32.2676 131 31.1432 132.719 29.3422L132.715 31.6609H138.435L138.397 7.34668H131.371C131.371 7.34668 131.371 19.985 131.371 22.0019C131.371 24.1713 129.595 25.9278 127.414 25.9278C125.418 25.9278 123.454 24.2761 123.454 22.0019Z" fill="#EE3B59"/>
<path d="M106.855 31.6482V0H113.882V31.6514H106.855V31.6482Z" fill="#EE3B59"/>
<path d="M92.7098 24.6509H83.4481V15.4398H76.4219V24.6509H67.1602V31.6387H76.4219V40.8498H83.4481V31.6387H92.7098V24.6509Z" fill="#EE3B59"/>
<path d="M76.4219 7.34668V14.4996C76.4219 14.4996 89.8961 14.5028 92.7098 14.5028C95.5203 14.5028 97.8133 16.7738 97.8133 19.5784C97.8133 22.0591 96.0217 24.1236 93.6551 24.562V31.6005C99.9627 31.1209 104.929 25.8833 104.929 19.4895C104.929 12.7876 99.4964 7.34033 92.7385 7.34986H76.4219V7.34668Z" fill="#EE3B59"/>
<path d="M6.397 7.34668C5.36862 9.85592 2.8935 11.6283 0 11.6283V17.1105H5.05564V31.6482H12.0818V7.34668H6.397Z" fill="#EE3B59"/>
<path d="M152.126 17.5869C149.747 16.7643 149.626 16.7134 148.732 16.2974C147.837 15.8781 147.413 15.3159 147.413 14.5917C147.413 13.5563 148.444 12.7177 149.715 12.7177C150.986 12.7177 152.018 13.5563 152.018 14.5917C152.018 14.5981 152.018 14.6076 152.018 14.6139C152.018 14.6203 152.018 14.6267 152.018 14.6362H158.265C158.265 10.5769 155.531 7.34668 149.699 7.34668C145.11 7.34668 141.06 9.64629 141.06 14.3884C141.06 19.0289 144.861 20.5123 149.274 22.0813C151.481 22.8659 152.637 23.4662 152.637 24.9844C152.637 26.4233 151.625 27.2205 149.923 27.2205C148.211 27.2205 146.477 26.4106 146.477 24.1586H140.201C140.201 29.6186 144.538 32.4264 150.089 32.4264C155.426 32.4264 158.948 29.6821 158.948 24.454C158.948 19.5721 154.506 18.4096 152.126 17.5869Z" fill="#EE3B59"/>
</svg>
